<mxfile host="app.diagrams.net" modified="2020-04-30T20:30:23.194Z" agent="5.0 (Macintosh; Intel Mac OS X 10_15_3) AppleWebKit/537.36 (KHTML, like Gecko) Chrome/81.0.4044.122 Safari/537.36" etag="iVjfQcJ9IVnEZQ0uI5M3" version="13.0.4" type="github">
  <diagram id="cYzsiMG_hBZ33oWnFEe3" name="Page-1">
    <mxGraphModel dx="1186" dy="764" grid="1" gridSize="10" guides="1" tooltips="1" connect="1" arrows="1" fold="1" page="1" pageScale="1" pageWidth="850" pageHeight="1100" math="0" shadow="0">
      <root>
        <mxCell id="0" />
        <mxCell id="1" parent="0" />
        <mxCell id="GLALJ3vJWi_O3MMSTwjA-37" style="edgeStyle=orthogonalEdgeStyle;rounded=0;orthogonalLoop=1;jettySize=auto;html=1;exitX=1;exitY=0.5;exitDx=0;exitDy=0;entryX=0.5;entryY=0;entryDx=0;entryDy=0;" edge="1" parent="1" source="GLALJ3vJWi_O3MMSTwjA-42" target="GLALJ3vJWi_O3MMSTwjA-27">
          <mxGeometry relative="1" as="geometry" />
        </mxCell>
        <mxCell id="GLALJ3vJWi_O3MMSTwjA-39" style="edgeStyle=orthogonalEdgeStyle;rounded=0;orthogonalLoop=1;jettySize=auto;html=1;entryX=0.425;entryY=-0.04;entryDx=0;entryDy=0;entryPerimeter=0;exitX=0;exitY=0.5;exitDx=0;exitDy=0;" edge="1" parent="1" source="GLALJ3vJWi_O3MMSTwjA-33" target="GLALJ3vJWi_O3MMSTwjA-34">
          <mxGeometry relative="1" as="geometry">
            <mxPoint x="300" y="150" as="sourcePoint" />
          </mxGeometry>
        </mxCell>
        <mxCell id="GLALJ3vJWi_O3MMSTwjA-7" value="التسجيل" style="rhombus;whiteSpace=wrap;html=1;" vertex="1" parent="1">
          <mxGeometry x="380" y="110" width="80" height="80" as="geometry" />
        </mxCell>
        <mxCell id="GLALJ3vJWi_O3MMSTwjA-20" style="edgeStyle=orthogonalEdgeStyle;rounded=0;orthogonalLoop=1;jettySize=auto;html=1;exitX=0;exitY=0.5;exitDx=0;exitDy=0;entryX=1;entryY=0.75;entryDx=0;entryDy=0;" edge="1" parent="1" source="GLALJ3vJWi_O3MMSTwjA-8" target="GLALJ3vJWi_O3MMSTwjA-15">
          <mxGeometry relative="1" as="geometry">
            <Array as="points">
              <mxPoint x="320" y="50" />
            </Array>
          </mxGeometry>
        </mxCell>
        <mxCell id="GLALJ3vJWi_O3MMSTwjA-25" style="edgeStyle=orthogonalEdgeStyle;rounded=0;orthogonalLoop=1;jettySize=auto;html=1;exitX=0.5;exitY=1;exitDx=0;exitDy=0;entryX=0.5;entryY=0;entryDx=0;entryDy=0;" edge="1" parent="1" source="GLALJ3vJWi_O3MMSTwjA-8" target="GLALJ3vJWi_O3MMSTwjA-7">
          <mxGeometry relative="1" as="geometry" />
        </mxCell>
        <mxCell id="GLALJ3vJWi_O3MMSTwjA-8" value="صفحه الترحيب" style="ellipse;whiteSpace=wrap;html=1;" vertex="1" parent="1">
          <mxGeometry x="360" y="10" width="120" height="80" as="geometry" />
        </mxCell>
        <mxCell id="GLALJ3vJWi_O3MMSTwjA-9" value="الصفحه الرئسيه" style="rounded=0;whiteSpace=wrap;html=1;" vertex="1" parent="1">
          <mxGeometry x="360" y="380" width="120" height="60" as="geometry" />
        </mxCell>
        <mxCell id="GLALJ3vJWi_O3MMSTwjA-10" value="مطعم ١" style="rounded=0;whiteSpace=wrap;html=1;" vertex="1" parent="1">
          <mxGeometry x="515" y="450" width="120" height="60" as="geometry" />
        </mxCell>
        <mxCell id="GLALJ3vJWi_O3MMSTwjA-11" value="" style="rounded=0;whiteSpace=wrap;html=1;" vertex="1" parent="1">
          <mxGeometry x="360" y="600" width="120" height="60" as="geometry" />
        </mxCell>
        <mxCell id="GLALJ3vJWi_O3MMSTwjA-47" style="edgeStyle=orthogonalEdgeStyle;rounded=0;orthogonalLoop=1;jettySize=auto;html=1;exitX=0.5;exitY=1;exitDx=0;exitDy=0;entryX=0.592;entryY=-0.083;entryDx=0;entryDy=0;entryPerimeter=0;" edge="1" parent="1" source="GLALJ3vJWi_O3MMSTwjA-12" target="GLALJ3vJWi_O3MMSTwjA-9">
          <mxGeometry relative="1" as="geometry" />
        </mxCell>
        <mxCell id="GLALJ3vJWi_O3MMSTwjA-12" value="" style="rounded=1;whiteSpace=wrap;html=1;" vertex="1" parent="1">
          <mxGeometry x="520" y="200" width="120" height="150" as="geometry" />
        </mxCell>
        <mxCell id="GLALJ3vJWi_O3MMSTwjA-48" style="edgeStyle=orthogonalEdgeStyle;rounded=0;orthogonalLoop=1;jettySize=auto;html=1;entryX=0.592;entryY=-0.067;entryDx=0;entryDy=0;entryPerimeter=0;" edge="1" parent="1" source="GLALJ3vJWi_O3MMSTwjA-13" target="GLALJ3vJWi_O3MMSTwjA-9">
          <mxGeometry relative="1" as="geometry" />
        </mxCell>
        <mxCell id="GLALJ3vJWi_O3MMSTwjA-13" value="" style="rounded=1;whiteSpace=wrap;html=1;" vertex="1" parent="1">
          <mxGeometry x="225" y="200" width="120" height="70" as="geometry" />
        </mxCell>
        <mxCell id="GLALJ3vJWi_O3MMSTwjA-15" value="اللغه" style="rounded=1;whiteSpace=wrap;html=1;" vertex="1" parent="1">
          <mxGeometry x="225" y="20" width="90" height="40" as="geometry" />
        </mxCell>
        <mxCell id="GLALJ3vJWi_O3MMSTwjA-18" value="العربيه&amp;nbsp;" style="rounded=1;whiteSpace=wrap;html=1;" vertex="1" parent="1">
          <mxGeometry x="120" y="10" width="60" height="30" as="geometry" />
        </mxCell>
        <mxCell id="GLALJ3vJWi_O3MMSTwjA-19" value="English&amp;nbsp;" style="rounded=1;whiteSpace=wrap;html=1;" vertex="1" parent="1">
          <mxGeometry x="120" y="50" width="60" height="30" as="geometry" />
        </mxCell>
        <mxCell id="GLALJ3vJWi_O3MMSTwjA-22" value="" style="endArrow=classic;html=1;exitX=0;exitY=0.75;exitDx=0;exitDy=0;" edge="1" parent="1" source="GLALJ3vJWi_O3MMSTwjA-15">
          <mxGeometry width="50" height="50" relative="1" as="geometry">
            <mxPoint x="200" y="64.5" as="sourcePoint" />
            <mxPoint x="180" y="64.5" as="targetPoint" />
            <Array as="points">
              <mxPoint x="180" y="64.5" />
            </Array>
          </mxGeometry>
        </mxCell>
        <mxCell id="GLALJ3vJWi_O3MMSTwjA-23" value="" style="endArrow=classic;html=1;exitX=0;exitY=0.5;exitDx=0;exitDy=0;" edge="1" parent="1" source="GLALJ3vJWi_O3MMSTwjA-15">
          <mxGeometry width="50" height="50" relative="1" as="geometry">
            <mxPoint x="220" y="30" as="sourcePoint" />
            <mxPoint x="180" y="20" as="targetPoint" />
            <Array as="points" />
          </mxGeometry>
        </mxCell>
        <mxCell id="GLALJ3vJWi_O3MMSTwjA-26" value="رمز التفعيل" style="rounded=0;whiteSpace=wrap;html=1;" vertex="1" parent="1">
          <mxGeometry x="530" y="230" width="100" height="20" as="geometry" />
        </mxCell>
        <mxCell id="GLALJ3vJWi_O3MMSTwjA-27" value="رقم الهاتف" style="text;html=1;strokeColor=none;fillColor=none;align=center;verticalAlign=middle;whiteSpace=wrap;rounded=0;" vertex="1" parent="1">
          <mxGeometry x="550" y="200" width="50" height="20" as="geometry" />
        </mxCell>
        <mxCell id="GLALJ3vJWi_O3MMSTwjA-29" value="" style="rounded=0;whiteSpace=wrap;html=1;" vertex="1" parent="1">
          <mxGeometry x="530" y="260" width="100" height="80" as="geometry" />
        </mxCell>
        <mxCell id="GLALJ3vJWi_O3MMSTwjA-31" value="الاسم الاول&lt;br&gt;الاسم الاخير&lt;br&gt;البريد الالكتروني&lt;br&gt;الرمز السري&lt;br&gt;العنوان&amp;nbsp;" style="text;html=1;strokeColor=none;fillColor=none;align=center;verticalAlign=middle;whiteSpace=wrap;rounded=0;" vertex="1" parent="1">
          <mxGeometry x="540" y="250" width="80" height="90" as="geometry" />
        </mxCell>
        <mxCell id="GLALJ3vJWi_O3MMSTwjA-34" value="البريد الالكتروني&lt;br&gt;الرمز السري" style="text;html=1;strokeColor=none;fillColor=none;align=center;verticalAlign=middle;whiteSpace=wrap;rounded=0;" vertex="1" parent="1">
          <mxGeometry x="245" y="200" width="80" height="50" as="geometry" />
        </mxCell>
        <mxCell id="GLALJ3vJWi_O3MMSTwjA-35" value="نسيت كلمه المرور" style="rounded=0;whiteSpace=wrap;html=1;" vertex="1" parent="1">
          <mxGeometry x="245" y="240" width="80" height="20" as="geometry" />
        </mxCell>
        <mxCell id="GLALJ3vJWi_O3MMSTwjA-33" value="نعم" style="text;html=1;strokeColor=none;fillColor=none;align=center;verticalAlign=middle;whiteSpace=wrap;rounded=0;" vertex="1" parent="1">
          <mxGeometry x="330" y="140" width="30" height="20" as="geometry" />
        </mxCell>
        <mxCell id="GLALJ3vJWi_O3MMSTwjA-45" style="edgeStyle=orthogonalEdgeStyle;rounded=0;orthogonalLoop=1;jettySize=auto;html=1;exitX=0;exitY=0.5;exitDx=0;exitDy=0;" edge="1" parent="1" source="GLALJ3vJWi_O3MMSTwjA-7">
          <mxGeometry relative="1" as="geometry">
            <mxPoint x="380" y="150" as="sourcePoint" />
            <mxPoint x="343" y="140" as="targetPoint" />
            <Array as="points">
              <mxPoint x="380" y="120" />
              <mxPoint x="343" y="120" />
            </Array>
          </mxGeometry>
        </mxCell>
        <mxCell id="GLALJ3vJWi_O3MMSTwjA-42" value="لا" style="text;html=1;strokeColor=none;fillColor=none;align=center;verticalAlign=middle;whiteSpace=wrap;rounded=0;" vertex="1" parent="1">
          <mxGeometry x="500" y="140" width="20" height="20" as="geometry" />
        </mxCell>
        <mxCell id="GLALJ3vJWi_O3MMSTwjA-46" style="edgeStyle=orthogonalEdgeStyle;rounded=0;orthogonalLoop=1;jettySize=auto;html=1;exitX=1;exitY=0.5;exitDx=0;exitDy=0;entryX=0.5;entryY=0;entryDx=0;entryDy=0;" edge="1" parent="1" source="GLALJ3vJWi_O3MMSTwjA-7" target="GLALJ3vJWi_O3MMSTwjA-42">
          <mxGeometry relative="1" as="geometry">
            <mxPoint x="460" y="150" as="sourcePoint" />
            <mxPoint x="575" y="200" as="targetPoint" />
            <Array as="points">
              <mxPoint x="480" y="150" />
              <mxPoint x="480" y="120" />
              <mxPoint x="510" y="120" />
            </Array>
          </mxGeometry>
        </mxCell>
        <mxCell id="GLALJ3vJWi_O3MMSTwjA-51" value="مطعم١" style="rounded=0;whiteSpace=wrap;html=1;" vertex="1" parent="1">
          <mxGeometry x="220" y="450" width="120" height="60" as="geometry" />
        </mxCell>
        <mxCell id="GLALJ3vJWi_O3MMSTwjA-52" value="ايقونه بحث" style="rounded=1;whiteSpace=wrap;html=1;" vertex="1" parent="1">
          <mxGeometry x="210" y="320" width="105" height="30" as="geometry" />
        </mxCell>
        <mxCell id="GLALJ3vJWi_O3MMSTwjA-53" value="العروض" style="rounded=1;whiteSpace=wrap;html=1;" vertex="1" parent="1">
          <mxGeometry x="210" y="360" width="105" height="30" as="geometry" />
        </mxCell>
        <mxCell id="GLALJ3vJWi_O3MMSTwjA-54" value="تصنيف المطاعم" style="rounded=1;whiteSpace=wrap;html=1;" vertex="1" parent="1">
          <mxGeometry x="210" y="400" width="105" height="30" as="geometry" />
        </mxCell>
      </root>
    </mxGraphModel>
  </diagram>
</mxfile>
